<!DOCTYPE svg PUBLIC "-//W3C//DTD SVG 20010904//EN" "http://www.w3.org/TR/2001/REC-SVG-20010904/DTD/svg10.dtd"[]><svg version="1.0" xmlns="http://www.w3.org/2000/svg" width="255" height="256" viewBox="0 0 897.000000 900.000000" preserveAspectRatio="xMidYMid meet"><g transform="translate(0.000000,900.000000) scale(0.100000,-0.100000)" fill="#000000" stroke="none"><path d="M4174 8509 c-374 -29 -871 -142 -1199 -274 -328 -131 -729 -370 -1039 -619 -125 -100 -360 -328 -475 -461 -277 -320 -493 -668 -664 -1070 -192 -450 -240 -618 -294 -1020 -25 -191 -25 -791 0 -995 84 -670 305 -1288 642 -1795 361 -542 857 -978 1548 -1361 523 -290 1086 -424 1778 -424 509 0 996 83 1449 247 755 273 1431 827 1913 1570 337 519 543 1078 627 1703 27 198 38 621 21 806 -59 654 -314 1366 -696 1949 -392 597 -906 1061 -1503 1360 -438 218 -903 344 -1421 385 -151 11 -534 11 -687 -1z m827 -208 c725 -96 1374 -387 1924 -862 262 -226 588 -587 749 -828 255 -381 506 -1126 578 -1716 17 -145 18 -663 0 -805 -44 -360 -128 -698 -249 -1010 -56 -143 -193 -428 -269 -557 -436 -747 -1124 -1312 -1949 -1603 -230 -81 -569 -161 -835 -197 -189 -25 -736 -25 -920 0 -1081 151 -1959 651 -2565 1462 -469 627 -705 1262 -766 2055 -14 190 -7 567 15 740 71 557 306 1191 619 1667 250 380 528 656 978 971 576 404 1207 640 1844 692 72 5 148 12 170 14 103 10 537 -4 676 -23z" /><path d="M4250 8153 c-628 -47 -1225 -254 -1735 -601 -385 -262 -754 -622 -998 -974 -239 -345 -446 -804 -542 -1202 -241 -994 -53 -2071 510 -2911 137 -205 248 -339 434 -526 427 -426 909 -723 1474 -908 388 -127 700 -176 1117 -176 293 1 434 14 695 66 880 174 1645 664 2209 1416 122 162 179 264 287 517 50 116 113 259 140 317 321 705 353 1686 83 2514 -278 850 -899 1599 -1678 2024 -393 214 -1015 397 -1496 441 -106 9 -393 11 -500 3z m140 -423 c0 -195 6 -222 51 -246 57 -29 119 -11 144 41 12 26 15 71 15 209 l0 176 80 0 80 0 0 -186 c0 -103 -5 -205 -11 -229 -16 -62 -77 -129 -136 -149 -52 -18 -170 -21 -224 -6 -88 25 -142 91 -160 197 -5 33 -7 126 -3 218 l7 160 78 -3 79 -4 0 -178z m1079 29 c130 -40 237 -73 239 -74 1 -1 -7 -32 -19 -69 -14 -47 -24 -66 -33 -63 -34 13 -149 47 -151 45 -2 -2 -26 -79 -55 -173 -28 -93 -56 -185 -61 -202 -12 -39 -17 -39 -102 -13 l-64 20 63 207 c35 114 62 208 60 210 -1 2 -36 13 -77 25 -41 12 -76 23 -78 24 -5 4 31 134 37 134 3 0 112 -32 241 -71z m-1733 -196 c103 -120 196 -228 206 -240 l20 -21 -83 -25 -82 -26 -37 42 -37 42 -106 -34 -106 -35 -3 -55 -3 -54 -73 -25 c-40 -13 -76 -21 -79 -18 -5 5 44 617 50 622 3 3 130 42 139 43 4 1 91 -97 194 -216z m2476 -110 c32 -21 58 -41 58 -46 0 -4 -25 -45 -57 -92 -31 -47 -54 -87 -52 -89 15 -12 159 -106 163 -106 3 0 29 35 57 78 28 42 55 81 60 86 11 13 141 -73 132 -88 -8 -14 -305 -460 -309 -465 -4 -4 -134 79 -134 86 0 2 27 44 59 92 l60 89 -86 57 c-47 31 -88 53 -92 47 -3 -5 -30 -46 -60 -91 l-54 -81 -26 16 c-82 54 -101 67 -101 72 0 13 306 471 314 471 5 1 36 -16 68 -36z m-3366 -133 c127 -62 198 -214 159 -345 -42 -147 -160 -235 -313 -235 -113 1 -204 58 -260 165 -35 67 -37 176 -5 247 41 90 130 164 227 189 47 12 145 1 192 -21z m1688 -287 c-3 -13 36 -58 128 -151 l133 -132 115 115 c70 70 122 115 135 115 14 0 -15 -35 -105 -125 l-125 -125 135 -135 135 -135 137 137 138 138 -113 113 c-85 86 -105 110 -82 102 17 -6 72 -52 122 -103 l93 -91 43 42 c23 23 51 42 62 42 15 0 7 -12 -33 -53 l-52 -52 138 -138 137 -137 95 95 c63 63 98 91 104 85 7 -7 -21 -42 -84 -105 l-95 -95 135 -135 135 -135 101 101 c65 65 106 99 114 94 8 -5 -22 -42 -91 -111 l-104 -104 138 -137 137 -138 99 99 c63 63 103 96 111 91 8 -5 -21 -41 -89 -109 l-101 -101 135 -135 135 -135 68 68 c61 61 92 81 92 59 0 -4 -32 -39 -70 -77 l-70 -70 137 -137 c129 -129 138 -136 155 -121 23 21 36 8 20 -18 -11 -18 -9 -25 18 -55 48 -55 38 -76 -13 -26 l-43 42 -137 -138 -137 -137 133 -133 c73 -72 137 -132 142 -132 5 0 42 33 82 72 40 40 73 66 73 57 0 -8 -29 -44 -65 -79 -36 -35 -65 -69 -65 -75 0 -6 34 -44 75 -85 41 -41 75 -81 75 -90 0 -8 -37 22 -83 68 -45 45 -87 82 -92 82 -5 0 -69 -60 -142 -132 l-133 -133 137 -137 138 -138 77 77 c58 57 78 72 78 58 0 -11 -30 -50 -67 -87 l-67 -68 49 -50 c33 -33 46 -53 39 -60 -7 -7 -26 7 -59 40 l-49 50 -138 -137 -138 -138 122 -122 c67 -67 119 -126 115 -130 -4 -4 -63 48 -130 115 l-122 122 -138 -138 -137 -137 138 -138 137 -137 94 93 c61 61 88 82 78 62 -9 -16 -47 -61 -86 -100 l-71 -69 26 -27 c37 -39 21 -59 -17 -23 l-30 28 -137 -137 -137 -137 48 -48 c26 -26 44 -51 40 -55 -4 -4 -29 14 -55 40 l-48 48 -137 -138 -138 -137 44 -44 c57 -58 36 -75 -23 -17 l-42 41 -134 -135 c-121 -122 -134 -137 -123 -155 15 -24 -1 -37 -23 -19 -13 10 -23 5 -62 -33 -77 -75 -105 -78 -32 -4 l65 66 -138 138 -137 137 -135 -135 -135 -135 106 -106 c71 -71 102 -109 94 -114 -8 -5 -50 30 -116 96 l-104 104 -137 -137 c-135 -136 -137 -137 -118 -158 18 -19 18 -20 -1 -20 -11 0 -25 5 -30 10 -8 8 -15 6 -24 -5 -7 -8 -22 -15 -33 -15 -20 0 -20 1 3 25 l24 26 -137 137 -137 137 -135 -135 -135 -134 32 -33 c37 -38 18 -47 -26 -12 -25 20 -28 20 -45 5 -24 -21 -36 -8 -14 16 16 18 11 25 -120 156 l-137 137 -110 -110 c-73 -73 -113 -106 -120 -99 -6 6 27 46 100 119 l110 110 -137 137 -138 138 -132 -132 c-73 -73 -133 -137 -133 -143 0 -5 35 -45 78 -88 65 -67 72 -76 42 -62 -19 9 -61 42 -92 73 -55 53 -58 55 -76 39 -19 -17 -42 -23 -42 -10 0 4 9 16 20 28 l20 21 -135 134 -135 135 -54 -54 c-36 -36 -56 -49 -61 -41 -5 7 12 32 44 64 l51 51 -138 138 -137 137 -60 -60 c-39 -40 -63 -56 -69 -50 -7 7 10 30 49 70 l60 60 -135 135 -134 135 -42 -41 c-59 -58 -80 -41 -23 17 l43 44 -136 138 c-119 120 -158 166 -158 186 0 3 6 3 13 1 6 -3 73 56 147 130 l135 135 -135 135 -135 135 -67 -67 c-51 -51 -68 -63 -68 -48 0 11 26 45 57 77 l57 58 -72 73 c-40 40 -72 81 -72 92 0 14 22 -2 83 -63 l82 -82 135 135 135 135 -138 137 -137 138 -85 -85 c-59 -58 -85 -79 -85 -66 0 10 34 53 75 95 l75 77 -65 64 c-37 37 -65 73 -65 84 0 16 18 3 75 -54 l75 -75 138 138 137 137 -135 135 -135 135 -47 -47 c-38 -37 -48 -43 -48 -28 0 11 17 36 37 57 36 37 36 38 18 58 -12 14 -15 24 -9 30 7 7 17 4 29 -10 19 -21 19 -20 152 112 73 73 133 137 133 143 0 6 -31 42 -70 80 -38 37 -66 73 -63 78 3 5 40 -25 82 -67 l76 -76 138 138 137 137 -105 105 c-70 69 -101 108 -95 114 7 7 45 -25 115 -94 l105 -105 137 138 138 137 -110 110 c-60 60 -106 113 -102 117 4 4 57 -42 117 -102 l110 -110 137 138 138 137 -94 94 c-65 65 -88 95 -78 99 9 3 47 -27 103 -84 l89 -89 132 132 c73 73 133 137 133 142 0 6 -19 30 -42 53 -26 26 -36 43 -27 43 8 0 32 -18 54 -40 l39 -40 92 90 c50 50 100 90 110 90 13 0 -13 -31 -81 -100 l-100 -100 135 -135 135 -135 137 137 138 138 -116 116 c-78 78 -112 119 -104 124 8 5 53 -33 126 -106 l114 -114 135 135 c74 74 133 141 130 147 -3 9 6 13 29 13 28 0 33 -3 30 -17z m1987 -4715 c102 -60 154 -149 153 -263 0 -91 -29 -158 -95 -220 -71 -67 -127 -90 -219 -90 -122 0 -217 60 -267 167 -62 131 -19 290 101 376 70 51 110 62 202 59 66 -3 89 -8 125 -29z m-3644 -145 c34 -20 63 -40 63 -44 0 -4 -23 -46 -51 -94 -36 -61 -48 -90 -41 -97 20 -20 156 -97 163 -92 4 2 28 40 54 84 26 44 51 83 56 86 8 4 72 -28 127 -64 10 -7 -23 -69 -133 -253 -81 -134 -148 -246 -150 -247 -5 -5 -135 72 -135 80 0 4 22 44 50 90 27 46 50 86 50 90 0 4 -28 23 -62 44 -35 21 -73 44 -85 51 -20 14 -24 10 -75 -76 -29 -50 -56 -91 -60 -91 -14 0 -128 73 -128 82 0 11 283 487 289 488 2 0 33 -17 68 -37z m2858 -315 c-3 -51 -10 -192 -16 -313 -5 -120 -11 -220 -12 -221 -1 0 -33 -12 -72 -26 l-70 -26 -210 225 c-115 123 -211 227 -213 231 -1 4 32 20 74 36 l76 28 42 -40 41 -40 100 37 100 38 3 55 3 56 67 25 c98 38 94 41 87 -65z m-1935 -87 c53 -15 64 -22 62 -37 -2 -10 -26 -101 -54 -202 -27 -101 -48 -189 -45 -196 3 -6 39 -20 81 -30 42 -10 76 -20 76 -22 0 -5 -33 -128 -35 -132 -3 -3 -477 126 -483 132 -2 3 3 34 13 70 l17 64 84 -23 84 -23 11 41 c6 23 31 115 55 205 24 90 44 165 44 168 0 8 25 4 90 -15z m919 -97 c66 -19 123 -74 145 -140 10 -31 18 -103 21 -199 3 -82 8 -167 11 -187 l4 -38 -83 0 -84 0 -7 172 c-10 229 -23 258 -116 258 -33 0 -48 -6 -72 -31 l-31 -30 4 -192 4 -192 -76 -3 -77 -3 -6 83 c-4 46 -7 140 -8 210 -1 116 1 130 23 174 31 61 80 100 149 118 72 19 135 19 199 0z" /><path d="M3530 7547 c0 -13 -3 -52 -6 -85 l-7 -62 49 16 c27 9 55 18 62 20 9 3 -2 24 -34 65 -58 73 -64 77 -64 46z" /><path d="M2657 7186 c-73 -26 -102 -72 -95 -148 15 -151 201 -202 278 -76 38 62 20 139 -44 196 -20 17 -45 32 -56 32 -10 0 -24 2 -32 5 -7 2 -30 -2 -51 -9z" /><path d="M4362 6867 l-132 -132 138 -138 137 -137 133 133 c72 73 132 137 132 142 0 13 -252 265 -265 265 -6 0 -70 -60 -143 -133z" /><path d="M3490 6575 l-135 -135 135 -135 135 -135 137 137 138 138 -132 132 c-73 73 -135 133 -138 133 -3 0 -66 -61 -140 -135z" /><path d="M4070 6575 l-135 -135 138 -138 137 -137 137 137 138 138 -135 135 c-74 74 -137 135 -140 135 -3 0 -66 -61 -140 -135z" /><path d="M4660 6575 l-135 -135 135 -135 135 -135 137 137 138 138 -132 132 c-73 73 -135 133 -138 133 -3 0 -66 -61 -140 -135z" /><path d="M5240 6575 l-135 -135 138 -138 137 -137 137 137 138 138 -135 135 c-74 74 -137 135 -140 135 -3 0 -66 -61 -140 -135z" /><path d="M3197 6282 l-137 -137 135 -135 135 -135 138 138 137 137 -135 135 -135 135 -138 -138z" /><path d="M3780 6285 l-135 -135 139 -139 138 -138 -17 -34 c-9 -19 -72 -89 -138 -156 l-122 -123 63 -63 c34 -34 62 -69 62 -77 0 -8 -32 17 -70 55 l-70 70 -138 -138 -137 -137 140 -140 c109 -108 139 -143 134 -157 -4 -10 -66 -76 -138 -148 -72 -71 -131 -134 -131 -140 0 -6 29 -40 65 -75 36 -35 65 -71 65 -79 0 -9 -33 17 -73 57 -40 39 -77 72 -82 72 -5 0 -69 -60 -142 -132 l-133 -133 137 -137 c125 -125 139 -136 154 -122 15 14 16 12 6 -25 -6 -22 -14 -38 -17 -36 -4 2 -68 -58 -143 -133 l-137 -137 75 -75 c67 -66 90 -100 68 -100 -4 0 -43 35 -85 77 l-78 78 -135 -135 -135 -135 135 -135 134 -134 31 29 c26 25 30 26 30 10 0 -10 -9 -28 -20 -40 -18 -20 -19 -23 -5 -35 8 -7 15 -22 15 -33 0 -20 -1 -20 -25 3 l-26 24 -137 -137 -137 -137 137 -137 138 -138 109 109 c73 72 111 104 116 96 5 -8 -31 -50 -99 -119 l-106 -106 135 -135 135 -135 137 137 138 138 -70 70 c-88 88 -62 98 29 10 l62 -59 134 134 c113 113 132 136 121 149 -19 22 -3 41 18 22 15 -14 28 -4 154 122 l137 137 -80 80 c-47 47 -80 88 -80 100 0 14 23 -3 90 -70 l90 -90 135 135 135 134 -42 43 c-34 34 -38 43 -23 43 10 0 34 -14 52 -32 l33 -32 33 32 c18 18 42 32 52 32 16 0 12 -7 -18 -38 -20 -21 -37 -42 -37 -48 0 -5 60 -69 133 -142 l132 -132 105 105 c70 71 107 101 112 92 5 -8 -29 -48 -95 -115 l-102 -102 137 -137 137 -137 34 32 c43 42 57 28 15 -15 l-32 -34 137 -137 137 -137 63 63 c57 56 87 75 87 54 0 -4 -29 -37 -65 -72 l-65 -65 132 -132 c73 -73 137 -133 143 -133 13 0 265 252 265 265 0 5 -41 51 -91 101 -58 59 -89 96 -84 104 5 8 40 -20 106 -86 l99 -99 138 138 137 137 -142 142 c-79 78 -143 146 -143 152 0 6 63 74 140 151 l140 140 -137 137 -138 138 -67 -67 c-38 -37 -68 -61 -68 -52 0 8 25 39 55 69 30 30 55 59 55 65 0 6 -54 64 -120 130 -76 76 -124 132 -131 154 l-11 33 131 132 c72 72 131 136 131 141 0 13 -252 265 -265 265 -5 0 -37 -27 -71 -61 -84 -83 -95 -59 -13 27 l63 65 -126 127 c-80 80 -129 138 -134 156 -6 26 3 38 127 162 l134 134 -137 137 -138 138 -64 -64 c-43 -42 -66 -59 -71 -51 -5 7 16 35 54 74 l61 61 -116 115 c-66 65 -124 132 -135 155 l-18 40 137 138 137 137 -138 137 -137 138 -137 -137 -137 -138 39 -40 c21 -22 36 -40 31 -40 -13 0 -50 21 -72 42 -19 17 -22 17 -34 3 -12 -15 -40 -21 -40 -8 0 3 8 15 17 25 16 18 11 25 -117 153 l-135 135 -137 -137 -138 -137 22 -23 c17 -18 18 -23 6 -23 -9 0 -21 7 -28 15 -12 14 -15 14 -34 -3 -12 -11 -37 -27 -56 -37 l-35 -17 45 46 44 46 -134 135 c-74 74 -137 135 -140 135 -3 0 -66 -61 -140 -135z m1070 -291 c68 -33 118 -75 156 -134 12 -19 213 -606 445 -1305 421 -1266 423 -1270 423 -1355 1 -73 -3 -94 -27 -145 -36 -77 -110 -147 -185 -175 -80 -31 -205 -25 -277 12 -62 32 -120 89 -150 148 -12 25 -66 179 -120 343 l-96 297 -497 -2 -496 -3 -95 -310 c-53 -170 -107 -327 -119 -347 -128 -207 -442 -212 -580 -9 -39 58 -66 159 -59 223 7 59 791 2546 822 2608 44 88 152 165 250 181 27 4 160 7 295 6 l245 -2 65 -31z" /><path d="M5537 6282 l-137 -137 135 -135 135 -135 138 138 137 137 -135 135 -135 135 -138 -138z" /><path d="M2907 5992 l-137 -137 135 -135 135 -135 138 138 137 137 -135 135 -135 135 -138 -138z" /><path d="M3492 5997 c-72 -73 -132 -137 -132 -142 0 -6 60 -70 133 -143 l132 -132 138 138 137 137 -138 138 -137 137 -133 -133z" /><path d="M5247 5992 l-137 -137 135 -135 135 -135 138 138 137 137 -135 135 -135 135 -138 -138z" /><path d="M5832 5997 c-72 -73 -132 -137 -132 -142 0 -6 60 -70 133 -143 l132 -132 138 138 137 137 -138 138 -137 137 -133 -133z" /><path d="M2610 5695 l-135 -135 135 -135 135 -135 137 137 138 138 -132 132 c-73 73 -135 133 -138 133 -3 0 -66 -61 -140 -135z" /><path d="M3192 5697 l-132 -132 138 -138 137 -137 133 133 c72 73 132 137 132 142 0 13 -252 265 -265 265 -6 0 -70 -60 -143 -133z" /><path d="M5532 5697 l-132 -132 138 -138 137 -137 133 133 c72 73 132 137 132 142 0 13 -252 265 -265 265 -6 0 -70 -60 -143 -133z" /><path d="M6120 5695 l-135 -135 135 -135 135 -135 137 137 138 138 -132 132 c-73 73 -135 133 -138 133 -3 0 -66 -61 -140 -135z" /><path d="M2320 5405 l-135 -135 135 -135 135 -135 137 137 138 138 -132 132 c-73 73 -135 133 -138 133 -3 0 -66 -61 -140 -135z" /><path d="M2900 5405 l-135 -135 138 -138 137 -137 137 137 138 138 -135 135 c-74 74 -137 135 -140 135 -3 0 -66 -61 -140 -135z" /><path d="M5830 5405 l-135 -135 135 -135 135 -135 137 137 138 138 -132 132 c-73 73 -135 133 -138 133 -3 0 -66 -61 -140 -135z" /><path d="M6410 5405 l-135 -135 138 -138 137 -137 137 137 138 138 -135 135 c-74 74 -137 135 -140 135 -3 0 -66 -61 -140 -135z" /><path d="M2610 5115 l-135 -135 138 -138 137 -137 137 137 138 138 -135 135 c-74 74 -137 135 -140 135 -3 0 -66 -61 -140 -135z" /><path d="M3197 5112 l-137 -137 135 -135 135 -135 138 138 137 137 -135 135 -135 135 -138 -138z" /><path d="M5537 5112 l-137 -137 135 -135 135 -135 138 138 137 137 -135 135 -135 135 -138 -138z" /><path d="M6120 5115 l-135 -135 138 -138 137 -137 137 137 138 138 -135 135 c-74 74 -137 135 -140 135 -3 0 -66 -61 -140 -135z" /><path d="M2317 4822 l-137 -137 138 -138 137 -137 138 138 137 137 -138 138 -137 137 -138 -138z" /><path d="M2907 4822 l-137 -137 135 -135 135 -135 138 138 137 137 -135 135 -135 135 -138 -138z" /><path d="M5832 4827 c-72 -73 -132 -137 -132 -142 0 -6 60 -70 133 -143 l132 -132 138 138 137 137 -138 138 -137 137 -133 -133z" /><path d="M6417 4822 l-137 -137 138 -138 137 -137 133 133 c72 73 132 137 132 142 0 6 -60 70 -133 143 l-132 132 -138 -138z" /><path d="M2610 4525 l-135 -135 135 -135 135 -135 137 137 138 138 -132 132 c-73 73 -135 133 -138 133 -3 0 -66 -61 -140 -135z" /><path d="M6120 4525 l-135 -135 138 -138 137 -137 137 137 138 138 -135 135 c-74 74 -137 135 -140 135 -3 0 -66 -61 -140 -135z" /><path d="M2320 4235 l-135 -135 135 -135 135 -135 135 135 135 135 -135 135 -135 135 -135 -135z" /><path d="M2900 4235 l-135 -135 138 -138 137 -137 137 137 138 138 -135 135 c-74 74 -137 135 -140 135 -3 0 -66 -61 -140 -135z" /><path d="M5830 4235 l-135 -135 138 -138 137 -137 137 137 138 138 -135 135 c-74 74 -137 135 -140 135 -3 0 -66 -61 -140 -135z" /><path d="M6410 4235 l-135 -135 138 -138 137 -137 137 137 138 138 -135 135 c-74 74 -137 135 -140 135 -3 0 -66 -61 -140 -135z" /><path d="M2610 3945 l-135 -135 138 -138 137 -137 135 135 135 135 -138 138 -137 137 -135 -135z" /><path d="M6120 3945 l-135 -135 138 -138 137 -137 137 137 138 138 -135 135 c-74 74 -137 135 -140 135 -3 0 -66 -61 -140 -135z" /><path d="M2322 3657 c-72 -73 -132 -137 -132 -142 0 -6 60 -70 133 -143 l132 -132 138 138 137 137 -138 138 -137 137 -133 -133z" /><path d="M2610 3355 l-135 -135 135 -135 135 -135 137 137 138 138 -132 132 c-73 73 -135 133 -138 133 -3 0 -66 -61 -140 -135z" /><path d="M4362 3357 l-132 -132 138 -138 137 -137 135 135 135 135 -135 135 c-74 74 -137 135 -140 135 -3 0 -65 -60 -138 -133z" /><path d="M6120 3355 l-135 -135 138 -138 137 -137 137 137 138 138 -135 135 c-74 74 -137 135 -140 135 -3 0 -66 -61 -140 -135z" /><path d="M4070 3065 l-135 -135 138 -138 137 -137 137 137 138 138 -135 135 c-74 74 -137 135 -140 135 -3 0 -66 -61 -140 -135z" /><path d="M4660 3065 l-135 -135 138 -138 137 -137 135 135 135 135 -138 138 -137 137 -135 -135z" /><path d="M3780 2775 l-135 -135 138 -138 137 -137 135 135 135 135 -138 138 -137 137 -135 -135z" /><path d="M4367 2772 l-137 -137 133 -133 c73 -72 137 -132 142 -132 13 0 265 252 265 265 0 6 -60 70 -133 143 l-132 132 -138 -138z" /><path d="M4950 2775 l-135 -135 138 -138 137 -137 135 135 135 135 -138 138 -137 137 -135 -135z" /><path d="M4662 2487 c-72 -73 -132 -137 -132 -142 0 -6 60 -70 133 -143 l132 -132 138 138 137 137 -138 138 -137 137 -133 -133z" /><path d="M4072 2477 l-132 -132 138 -138 137 -137 135 135 135 135 -135 135 c-74 74 -137 135 -140 135 -3 0 -65 -60 -138 -133z" /><path d="M6292 2180 c-157 -96 -26 -346 142 -271 62 27 88 70 83 138 -8 118 -131 190 -225 133z" /><path d="M5512 1631 c-24 -10 -44 -21 -44 -25 0 -4 22 -33 48 -64 l49 -56 7 39 c12 66 9 125 -4 124 -7 -1 -32 -9 -56 -18z" /></g></svg>